<?xml version="1.0" encoding="UTF-8" standalone="no"?>
<svg
   xmlns:dc="http://purl.org/dc/elements/1.1/"
   xmlns:cc="http://creativecommons.org/ns#"
   xmlns:rdf="http://www.w3.org/1999/02/22-rdf-syntax-ns#"
   xmlns:svg="http://www.w3.org/2000/svg"
   xmlns="http://www.w3.org/2000/svg"
   xmlns:xlink="http://www.w3.org/1999/xlink"
   xmlns:sodipodi="http://sodipodi.sourceforge.net/DTD/sodipodi-0.dtd"
   xmlns:inkscape="http://www.inkscape.org/namespaces/inkscape"
   width="97px"
   height="34px"
   viewBox="0 0 97 34"
   version="1.1"
   id="svg36"
   sodipodi:docname="logo.svg"
   inkscape:version="0.92.4 (5da689c313, 2019-01-14)">
  <metadata
     id="metadata42">
    <rdf:RDF>
      <cc:Work
         rdf:about="">
        <dc:format>image/svg+xml</dc:format>
        <dc:type
           rdf:resource="http://purl.org/dc/dcmitype/StillImage" />
        <dc:title>tinder-1</dc:title>
      </cc:Work>
    </rdf:RDF>
  </metadata>
  <defs
     id="defs40">
    <linearGradient
       inkscape:collect="always"
       id="linearGradient4790-9">
      <stop
         style="stop-color:#df4723;stop-opacity:1;"
         offset="0"
         id="stop4786" />
      <stop
         style="stop-color:#df2345;stop-opacity:0.97989953"
         offset="1"
         id="stop4788" />
    </linearGradient>
    <linearGradient
       inkscape:collect="always"
       xlink:href="#linearGradient4790-9"
       id="linearGradient4792"
       x1="1.4136914"
       y1="32.007793"
       x2="96.36203"
       y2="1.5701398"
       gradientUnits="userSpaceOnUse" />
  </defs>
  <sodipodi:namedview
     pagecolor="#ffffff"
     bordercolor="#666666"
     borderopacity="1"
     objecttolerance="10"
     gridtolerance="10"
     guidetolerance="10"
     inkscape:pageopacity="0"
     inkscape:pageshadow="2"
     inkscape:window-width="1366"
     inkscape:window-height="715"
     id="namedview38"
     showgrid="false"
     inkscape:zoom="2.8284271"
     inkscape:cx="53.040385"
     inkscape:cy="42.861237"
     inkscape:window-x="-8"
     inkscape:window-y="-8"
     inkscape:window-maximized="1"
     inkscape:current-layer="Login">
    <inkscape:grid
       type="xygrid"
       id="grid4807" />
  </sodipodi:namedview>
  <!-- Generator: Sketch 56 (81588) - https://sketch.com -->
  <title
     id="title27">tinder-1</title>
  <desc
     id="desc29">Created with Sketch.</desc>
  <g
     id="Web"
     style="fill:url(#linearGradient4792);fill-opacity:1"
     stroke-width="1"
     stroke="none"
     fill-rule="evenodd"
     fill="none">
    <g
       id="Login"
       transform="translate(-675.000000, -433.000000)"
       style="fill:url(#linearGradient4792);fill-opacity:1"
       stroke-width="0.5"
       stroke="#DF4723"
       fill-rule="nonzero"
       fill="#DF4723">
      <g
         id="Group-3"
         transform="translate(563.000000, 434.000000)"
         style="fill:#ffffff;fill-opacity:1;stroke:none">
        <g
           id="tinder-1"
           transform="translate(113.000000, 0.000000)"
           style="fill:#ffffff;fill-opacity:1;stroke:none">
          <path
             d="m 12.940969,0.03524229 c 0.211454,0.09867842 0.345375,0.3030837 0.514538,0.46519824 0.274889,0.23964758 0.479365,0.55682817 0.747207,0.80352427 0.331277,0.3171806 0.542731,0.7189427 0.817621,1.078414 0.479295,0.7259912 0.902202,1.5013216 1.120705,2.3471366 0.22555,0.5779736 0.260793,1.2052864 0.246696,1.8255507 0.0141,0.5638766 -0.14097,1.1207048 -0.394784,1.6281938 C 15.556018,8.9515418 14.76659,9.4660793 13.94185,9.7409692 12.912775,9.9876652 11.777974,10.029956 10.784141,9.5929515 10.424599,9.3955947 10.015859,9.261674 9.7268723,8.9515418 9.0572687,8.4017621 8.6696035,7.5066079 8.7964758,6.6396476 8.9938326,5.0960352 9.9171806,3.7709251 10.903965,2.6290749 c 0.09163,0.169163 0.01403,0.3665198 0.07753,0.5427313 0.08458,0.3735683 0.218502,0.7682819 0.50044,1.0361233 0.345375,-0.3171806 0.711965,-0.6343612 1.008,-1.000881 0.267842,-0.3947137 0.486274,-0.8317181 0.577903,-1.2969163 0.02122,-0.5920705 0.0776,-1.21233484 -0.148017,-1.77621149 z M 0.02819383,7.076652 C 1.677533,7.090749 3.3339207,7.062555 4.9833304,7.090749 c 0,1.6422908 0.014026,3.284581 -0.00712,4.926872 1.1701146,0.02115 2.3400882,0.007 3.5171807,0.007 0.014097,0.126872 0.021145,0.253744 0.021145,0.380616 -0.014097,1.353304 0.00705,2.69956 -0.014097,4.052864 -1.1770925,0.0141 -2.3471365,0 -3.5242291,0.007 0.021145,2.431718 -0.00705,4.856388 0.014097,7.288106 0.042291,0.211454 0.070485,0.422907 0.063436,0.64141 -0.021216,0.197427 0.098608,0.359541 0.1409692,0.542731 0.09163,0.422907 0.324229,0.803524 0.592,1.134872 0.3947841,0.394714 0.9022026,0.669604 1.4449339,0.789357 0.493392,0.0776 0.9867841,0.119824 1.4872951,0.08458 0.028123,0.08458 0.042291,0.169163 0.042291,0.260793 -0.00705,1.268723 -0.00705,2.537445 0,3.799119 0,0.176212 -0.035242,0.352423 -0.063436,0.521516 -0.7118943,0 -1.4237181,0.04934 -2.1356829,0 C 6.1392071,31.436053 5.6881762,31.478344 5.2792951,31.295084 4.1444934,31.027242 3.0590308,30.463366 2.2484581,29.610502 1.0572687,28.461674 0.41585903,26.840529 0.15506608,25.23348 0.0845815,25.057269 0.12687225,24.852863 0.09860793,24.662555 0,24.27489 0.04222026,23.866009 0.02812335,23.471366 0.02114537,18.008811 0.02114537,12.539207 0.02819383,7.076652 Z M 24.105727,11.644053 c 0.295965,-0.07753 0.613145,-0.02114 0.90918,-0.08458 0.620265,-0.07753 1.233481,0.02115 1.846696,0.04229 0.429957,-0.007 0.845815,0.119824 1.268723,0.204405 1.571806,0.380617 3.059031,1.219384 4.137445,2.445815 0.190308,0.317181 0.479295,0.54978 0.662484,0.874009 0.45815,0.725991 0.761304,1.536564 1.022027,2.354185 0.162185,0.599119 0.246696,1.219383 0.324299,1.832599 0.03524,1.360353 0.0141,2.727754 0.02115,4.088106 -0.007,2.713656 0.007,5.427313 -0.007,8.140969 -1.649339,-0.02115 -3.29163,-0.007 -4.93392,-0.0141 -0.0141,-0.007 -0.04934,-0.03524 -0.06344,-0.04934 -0.007,-3.799048 0,-7.598238 0,-11.390308 0.007,-0.465199 -0.07753,-0.9163 -0.176212,-1.360353 -0.176211,-0.451101 -0.401762,-0.881057 -0.711894,-1.247577 -0.183331,-0.218502 -0.437005,-0.359471 -0.64148,-0.54978 -0.317181,-0.211453 -0.690749,-0.310132 -1.05015,-0.40881 -0.190309,-0.0141 -0.380617,0 -0.556828,-0.06344 -0.754185,-0.04934 -1.522467,0.0141 -2.227313,0.303083 -0.514608,0.246696 -0.993903,0.585023 -1.332159,1.057269 -0.556828,0.662555 -0.740088,1.564758 -0.725991,2.410573 0,3.763876 0.007,7.534802 0,11.298678 -1.663507,0.0141 -3.326872,-0.007 -4.990308,0.0141 -0.02819,-3.629956 0,-7.26696 -0.0141,-10.896916 0.007,-0.465269 -0.007,-0.930397 0.02819,-1.395665 0.09163,-0.232599 0.02812,-0.486273 0.09861,-0.711895 0.126872,-0.859911 0.451101,-1.677533 0.810572,-2.459911 0.352423,-0.683701 0.775331,-1.339207 1.32511,-1.881939 0.430027,-0.437004 0.874009,-0.895154 1.416811,-1.198238 1.050291,-0.732969 2.290819,-1.177022 3.559542,-1.353233 z m -13.99119,0.373568 c 1.663437,0.02819 3.326873,-0.007 4.990309,0.0141 0,6.449339 -0.007,12.891559 0,19.333921 0,0.06344 0,0.190308 -0.09868,0.169163 h -4.877462 c -0.04236,-1.064317 -0.0071,-2.135683 -0.02122,-3.2 0.007,-5.434362 0,-10.875771 0.007,-16.317181 z M 62.30837,25.09956 c 0.422907,-0.162115 0.831718,-0.373569 1.261604,-0.521516 0.620264,-0.239647 1.226431,-0.528634 1.846696,-0.768282 1.282819,-0.592 2.607929,-1.085392 3.904845,-1.642291 0.310062,-0.169163 0.662485,-0.246696 0.965569,-0.429956 0.345374,-0.13392 0.690819,-0.253815 1.029145,-0.408881 0.296035,-0.176211 0.634361,-0.246696 0.937445,-0.401691 0.401762,-0.162185 0.789427,-0.345375 1.198238,-0.493392 0.415859,-0.23267 0.881057,-0.345375 1.296916,-0.570996 0.112775,-0.07753 0.295965,-0.05639 0.36645,-0.190308 -0.119754,-0.169093 -0.05639,-0.380547 -0.119754,-0.563877 -0.0917,-0.331207 -0.18333,-0.655507 -0.260793,-0.979665 -0.31718,-0.979736 -0.77533,-1.917181 -1.395594,-2.734802 -0.754185,-1.092511 -1.790309,-1.973568 -2.939208,-2.622026 -0.754184,-0.45815 -1.599999,-0.718943 -2.445814,-0.944494 -0.521586,-0.06344 -1.022027,-0.246696 -1.550661,-0.239647 -0.479295,-0.06344 -0.972687,-0.09163 -1.444934,-0.007 -0.838767,0.0141 -1.642291,0.218502 -2.438767,0.451101 -1.388546,0.486344 -2.706608,1.226432 -3.770925,2.248459 -0.31718,0.296035 -0.577973,0.641409 -0.881057,0.944493 -0.472247,0.606168 -0.902273,1.247577 -1.226432,1.938326 -0.45815,1.036123 -0.895154,2.121586 -0.944493,3.270485 -0.154996,0.549779 -0.105727,1.127753 -0.112775,1.69163 -0.0141,0.359471 0.04229,0.711894 0.112775,1.057268 -0.02115,0.36645 0.119824,0.704846 0.169163,1.057269 0.119824,0.747137 0.451101,1.437815 0.754185,2.128564 0.831718,1.705727 2.142661,3.185903 3.785022,4.151542 1.078414,0.662555 2.276652,1.134802 3.531277,1.311013 1.022027,0.162185 2.072247,0.190308 3.101322,0.05646 0.352423,0.02812 0.690749,-0.126943 1.043172,-0.148088 1.501321,-0.352423 2.974449,-0.986784 4.109251,-2.051101 0.338396,-0.267842 0.655577,-0.585022 0.923418,-0.923419 0.451031,-0.45815 0.775331,-1.014907 1.09956,-1.564687 0.310132,-0.585093 0.563876,-1.205357 0.747207,-1.846696 -0.09868,-0.04236 -0.211454,-0.02819 -0.310132,-0.02819 -1.64934,0.0071 -3.29163,-0.007 -4.940969,0 -0.155067,0 -0.155067,0.211454 -0.253815,0.296035 -0.281939,0.408811 -0.64141,0.754185 -1.022027,1.078414 -0.54978,0.394785 -1.198238,0.606238 -1.839647,0.796476 -0.169163,0.02122 -0.331278,0.0141 -0.486344,0.0776 -0.394714,0.02812 -0.796476,0.0141 -1.198238,0.007 -0.444053,-0.08458 -0.888106,-0.18326 -1.318062,-0.324229 -0.662484,-0.338326 -1.311013,-0.725991 -1.811383,-1.275841 -0.126943,-0.154996 -0.331277,-0.27482 -0.373639,-0.479295 0.112846,-0.04934 0.218573,-0.126873 0.345375,-0.148018 0.204405,-0.03524 0.359401,-0.197357 0.556828,-0.253744 z m -2.030026,-3.56652 c -0.09861,-0.246696 -0.007,-0.535683 -0.02115,-0.796476 0.112846,-0.359542 0.148088,-0.740088 0.281939,-1.09963 0.338326,-0.796476 0.754185,-1.578784 1.360352,-2.206168 0.281938,-0.232599 0.521586,-0.514537 0.845815,-0.690748 0.239647,-0.126873 0.472247,-0.267842 0.718943,-0.380617 0.458149,-0.13385 0.902202,-0.345304 1.381568,-0.345304 0.436934,-0.105727 0.888106,-0.04934 1.332088,-0.04236 1.162996,0.162185 2.33311,0.662555 3.087225,1.585903 0.0776,0.18333 -0.18326,0.197427 -0.288987,0.267912 -0.45815,0.253744 -0.972687,0.380546 -1.430837,0.641409 -0.204405,0.03524 -0.380617,0.162115 -0.577974,0.225551 -1.45903,0.634361 -2.946255,1.191119 -4.391189,1.853744 -0.77526,0.303084 -1.543542,0.627313 -2.297797,0.986785 z M 55.027242,3.4044053 c -1.543542,-0.014097 -3.087224,0 -4.630766,-0.00705 -0.112846,0.014097 -0.246696,-0.035242 -0.338397,0.049339 0.0141,3.3127754 0,6.6325987 0.0071,9.9453747 -0.0071,0.119823 0.02115,0.239647 -0.02819,0.352422 -0.140969,-0.02115 -0.211453,-0.155066 -0.31718,-0.232599 -0.711894,-0.613216 -1.5083,-1.134801 -2.396476,-1.437885 -0.599119,-0.232599 -1.226361,-0.352423 -1.860722,-0.465198 -0.718943,-0.0141 -1.444934,-0.03524 -2.170996,0.007 -0.07753,0.02114 -0.148018,0.04229 -0.22548,0.04934 -1.614097,0.225551 -3.122538,0.979736 -4.362996,2.015859 -0.690749,0.648458 -1.381498,1.32511 -1.867841,2.142731 -0.570925,0.810573 -0.937445,1.74097 -1.289868,2.657269 -0.162115,0.577974 -0.3243,1.148899 -0.394784,1.740969 -0.133921,0.909251 -0.07753,1.839648 -0.06344,2.755948 0.03524,0.239647 0.112775,0.465198 0.119823,0.704845 0.126873,0.775331 0.352423,1.536564 0.662485,2.262555 0.260793,0.697798 0.6837,1.332159 1.071366,1.96652 0.27489,0.352423 0.542731,0.718943 0.874008,1.029075 0.493393,0.486344 0.979666,1.014978 1.59993,1.353304 0.73304,0.556828 1.6,0.888176 2.445815,1.212335 0.310132,0.05639 0.599119,0.232599 0.9163,0.239647 0.267841,0.02115 0.514537,0.148018 0.782449,0.133851 0.140969,-0.0141 0.267841,0.08458 0.415788,0.07048 0.683701,0.02115 1.37445,0.02115 2.05815,0 0.112776,0 0.225551,-0.04934 0.345375,-0.05639 0.472176,0.007 0.90918,-0.176212 1.36733,-0.239648 0.599119,-0.218502 1.240599,-0.359471 1.797357,-0.68363 0.82467,-0.380617 1.571806,-0.916299 2.24141,-1.522537 0.845815,-0.73297 1.529515,-1.649269 2.037004,-2.650221 0.218502,-0.444052 0.465198,-0.874008 0.606167,-1.353304 0.267912,-0.662555 0.387666,-1.3674 0.479366,-2.065198 0.154996,-0.613216 0.105727,-1.254625 0.119894,-1.888987 z M 50.015859,22.49163 c -0.04229,0.747207 -0.324229,1.459031 -0.655507,2.128634 -0.556828,1.050221 -1.494273,1.853745 -2.55859,2.361234 -0.162185,0.08458 -0.373639,0.0776 -0.486344,0.232599 -0.197356,0 -0.394713,0.0071 -0.585022,0.0776 -0.606237,0.0141 -1.23348,0.07049 -1.82555,-0.09868 -0.253745,-0.119824 -0.535683,-0.169092 -0.789428,-0.303084 -0.31718,-0.176211 -0.676652,-0.296035 -0.937444,-0.563876 -0.493393,-0.345375 -0.873939,-0.817622 -1.219384,-1.303965 -0.27489,-0.472247 -0.549779,-0.95859 -0.676652,-1.494273 -0.140969,-0.281939 -0.126942,-0.599119 -0.204405,-0.895154 -0.02115,-0.754115 -0.06344,-1.529445 0.112775,-2.262556 0.0776,-0.232599 0.126943,-0.479295 0.211454,-0.711894 0.204405,-0.373638 0.331278,-0.789427 0.599119,-1.127753 0.140969,-0.296035 0.387665,-0.514608 0.585093,-0.768282 0.528634,-0.606167 1.254625,-0.993833 1.987594,-1.296916 0.27489,-0.06337 0.542732,-0.204335 0.831789,-0.204335 0.585022,-0.148088 1.191119,-0.02819 1.769163,0.07753 0.761233,0.27489 1.515418,0.655507 2.107489,1.219383 0.218502,0.204405 0.380546,0.45815 0.599119,0.662555 0.902132,1.212194 1.317921,2.769903 1.134731,4.271225 z M 73.673734,12 H 73.9327 80 l 4.762515,13.279559 0.02344,0.03125 0.03869,-0.01522 L 89.681215,12 h 5.760191 l 0.01612,0.04297 -7.760275,19.487687 -0.137658,0.05131 -5.406745,-10e-4 L 82,31.520644 73.764006,12.257968 Z"
             id="Shape"
             style="fill:#ffffff;fill-opacity:1;stroke:none"
             inkscape:connector-curvature="0"
             sodipodi:nodetypes="ccccccccccccccccccccccccccccccccccccccccccccccccccccccccccccccccccccccccccccccccccccccccccccccccccccccccccccccccccccccccccccccccccccccccccccccccccccccccccccccccccccccccccccccccccccccccccccccccccccccccccccccccccccc" />
        </g>
      </g>
    </g>
  </g>
</svg>
